<svg xmlns="http://www.w3.org/2000/svg" viewBox="0 0 640 800" role="img" aria-hidden="true">
  <defs>
    <linearGradient id="ai-bg" x1="0" y1="0" x2="1" y2="1">
      <stop offset="0%" stop-color="#1b1730"/>
      <stop offset="55%" stop-color="#100e1c"/>
      <stop offset="100%" stop-color="#0a0a0c"/>
    </linearGradient>
    <radialGradient id="ai-glow1" cx="30%" cy="26%" r="55%">
      <stop offset="0%" stop-color="#6b5b95" stop-opacity="0.4"/>
      <stop offset="50%" stop-color="#6b5b95" stop-opacity="0.08"/>
      <stop offset="100%" stop-color="#6b5b95" stop-opacity="0"/>
    </radialGradient>
    <radialGradient id="ai-glow2" cx="76%" cy="70%" r="50%">
      <stop offset="0%" stop-color="#3d7bff" stop-opacity="0.3"/>
      <stop offset="50%" stop-color="#3d7bff" stop-opacity="0.06"/>
      <stop offset="100%" stop-color="#3d7bff" stop-opacity="0"/>
    </radialGradient>
    <radialGradient id="ai-vignette" cx="50%" cy="50%" r="75%">
      <stop offset="55%" stop-color="#000000" stop-opacity="0"/>
      <stop offset="100%" stop-color="#000000" stop-opacity="0.58"/>
    </radialGradient>
    <filter id="ai-grain">
      <feTurbulence type="fractalNoise" baseFrequency="0.85" numOctaves="2" stitchTiles="stitch" result="n"/>
      <feColorMatrix in="n" type="matrix" values="0 0 0 0 0  0 0 0 0 0  0 0 0 0 0  0 0 0 0.05 0"/>
    </filter>
  </defs>

  <rect width="640" height="800" fill="url(#ai-bg)"/>
  <rect width="640" height="800" fill="url(#ai-glow1)"/>
  <rect width="640" height="800" fill="url(#ai-glow2)"/>

  <!-- generative node-network: an irregular constellation, not a literal circuit -->
  <g stroke="#f6f1e9" stroke-opacity="0.28" stroke-width="1">
    <line x1="160" y1="220" x2="300" y2="150"/>
    <line x1="300" y1="150" x2="430" y2="240"/>
    <line x1="160" y1="220" x2="230" y2="340"/>
    <line x1="230" y1="340" x2="430" y2="240"/>
    <line x1="230" y1="340" x2="360" y2="420"/>
    <line x1="360" y1="420" x2="430" y2="240"/>
    <line x1="360" y1="420" x2="500" y2="470"/>
    <line x1="430" y1="240" x2="540" y2="330"/>
    <line x1="540" y1="330" x2="500" y2="470"/>
    <line x1="500" y1="470" x2="410" y2="560"/>
    <line x1="410" y1="560" x2="300" y2="520"/>
    <line x1="300" y1="520" x2="230" y2="340"/>
    <line x1="140" y1="480" x2="230" y2="340"/>
    <line x1="140" y1="480" x2="300" y2="520"/>
  </g>
  <g stroke="#3d7bff" stroke-opacity="0.4" stroke-width="1.2">
    <line x1="500" y1="470" x2="560" y2="600"/>
    <line x1="410" y1="560" x2="480" y2="660"/>
  </g>

  <!-- nodes, sized by "weight" -->
  <g fill="#f6f1e9">
    <circle cx="160" cy="220" r="4" opacity="0.85"/>
    <circle cx="300" cy="150" r="3" opacity="0.6"/>
    <circle cx="430" cy="240" r="6" opacity="0.9"/>
    <circle cx="230" cy="340" r="5" opacity="0.8"/>
    <circle cx="360" cy="420" r="7" opacity="0.95"/>
    <circle cx="540" cy="330" r="3.5" opacity="0.65"/>
    <circle cx="500" cy="470" r="5.5" opacity="0.85"/>
    <circle cx="410" cy="560" r="4" opacity="0.7"/>
    <circle cx="300" cy="520" r="3" opacity="0.55"/>
    <circle cx="140" cy="480" r="3" opacity="0.5"/>
  </g>
  <g fill="#ff6b5e">
    <circle cx="360" cy="420" r="3" opacity="0.9"/>
  </g>
  <g fill="#16a878">
    <circle cx="560" cy="600" r="4" opacity="0.8"/>
    <circle cx="480" cy="660" r="3" opacity="0.7"/>
  </g>

  <!-- soft flowing gradient mesh shape, generative / non-uniform -->
  <path d="M40 620 C 140 560, 220 700, 340 660 S 560 560, 620 660 L 640 800 L 0 800 Z"
        fill="#6b5b95" opacity="0.14"/>

  <rect width="640" height="800" fill="url(#ai-vignette)"/>
  <rect width="640" height="800" filter="url(#ai-grain)"/>
</svg>
